<svg xmlns="http://www.w3.org/2000/svg" version="1.1" xmlns:xlink="http://www.w3.org/1999/xlink" xmlns:svgjs="http://svgjs.com/svgjs" width="1440" height="2700" preserveAspectRatio="none" viewBox="0 0 1440 2700"><g mask="url(&quot;#SvgjsMask1036&quot;)" fill="none"><rect width="1440" height="2700" x="0" y="0" fill="rgba(16, 16, 16, 1)"></rect><circle r="15.17" cx="617.77" cy="2373.87" filter="url(#SvgjsFilter1037)" fill="rgba(255, 255, 255, 0.04)"></circle><circle r="19.79" cx="84.47" cy="1685.67" filter="url(#SvgjsFilter1037)" fill="rgba(255, 255, 255, 0.04)"></circle><circle r="22.225" cx="691.0550000000001" cy="1856.685" filter="url(#SvgjsFilter1037)" fill="rgba(255, 255, 255, 0.04)"></circle><circle r="20.645" cx="499.125" cy="1138.895" filter="url(#SvgjsFilter1037)" fill="rgba(255, 255, 255, 0.04)"></circle><circle r="16.79" cx="255.94" cy="707.18" filter="url(#SvgjsFilter1037)" fill="rgba(255, 255, 255, 0.04)"></circle><circle r="13.98" cx="141.74" cy="2190.65" filter="url(#SvgjsFilter1037)" fill="rgba(255, 255, 255, 0.04)"></circle><circle r="16.905" cx="486.57500000000005" cy="601.0849999999999" filter="url(#SvgjsFilter1037)" fill="rgba(255, 255, 255, 0.04)"></circle><circle r="15.44" cx="1451.18" cy="1918.73" filter="url(#SvgjsFilter1037)" fill="rgba(255, 255, 255, 0.04)"></circle><circle r="23.575" cx="1410.795" cy="2425.2149999999997" filter="url(#SvgjsFilter1037)" fill="rgba(255, 255, 255, 0.04)"></circle><circle r="22.345" cx="963.835" cy="1816.855" filter="url(#SvgjsFilter1037)" fill="rgba(255, 255, 255, 0.04)"></circle><circle r="23.685" cx="648.5949999999999" cy="519.625" filter="url(#SvgjsFilter1037)" fill="rgba(255, 255, 255, 0.04)"></circle><circle r="14.07" cx="1445.47" cy="851.86" filter="url(#SvgjsFilter1037)" fill="rgba(255, 255, 255, 0.04)"></circle><circle r="14.495" cx="368.425" cy="1781.5249999999999" filter="url(#SvgjsFilter1037)" fill="rgba(255, 255, 255, 0.04)"></circle><circle r="19.16" cx="774.17" cy="449.54" filter="url(#SvgjsFilter1037)" fill="rgba(255, 255, 255, 0.04)"></circle><circle r="22.985" cx="796.695" cy="1132.5249999999999" filter="url(#SvgjsFilter1037)" fill="rgba(255, 255, 255, 0.04)"></circle><circle r="22.535" cx="72.165" cy="506.70500000000004" filter="url(#SvgjsFilter1037)" fill="rgba(255, 255, 255, 0.04)"></circle><circle r="18.67" cx="959" cy="1839.46" filter="url(#SvgjsFilter1037)" fill="rgba(255, 255, 255, 0.04)"></circle><circle r="14.65" cx="499.40999999999997" cy="608.66" filter="url(#SvgjsFilter1037)" fill="rgba(255, 255, 255, 0.04)"></circle><circle r="14.44" cx="535.6700000000001" cy="877.46" filter="url(#SvgjsFilter1037)" fill="rgba(255, 255, 255, 0.04)"></circle><circle r="22.255" cx="1102.115" cy="1239.285" filter="url(#SvgjsFilter1037)" fill="rgba(255, 255, 255, 0.04)"></circle><path d="M1080.3 756.9L1176 754 1200.9 778.6 1168.6 779.4C1165.1 778.6 1163.1 781.8 1162.3 785.3 1162.9 787.9 1165.8 791.1 1168.4 790.5L1213 790.1 1238.2 813.5 1205.1 822.8 1165.9 801C1165.9 801 1164.7 800.7 1164.7 800.7 1162.4 800.1 1159.5 801.9 1157.8 804 1156.9 807.5 1157.5 810.1 1160.8 812.1L1189.1 827.6 1156 836.9 1071.8 791.8C1071.8 791.8 1070.9 790.4 1070.9 790.4 1068.6 789.8 1065.7 791.6 1064 793.7 1062 796.9 1063.5 800.9 1067 801.8L1140 841.6 1100 854.2 1067.2 836.4C1067.2 836.4 1067.2 836.4 1066.1 836.1 1063.7 835.6 1061.1 836.2 1059.4 838.2 1058.6 841.7 1058.9 845.5 1062.1 847.5L1084 859 1054.7 868C1050.9 868.3 1050.1 871.8 1050.7 874.4 1051 878.2 1054.2 880.2 1058.3 878.7L1087.3 870.9 1075 891.4C1074.1 894.9 1074.4 898.6 1077.9 899.5 1081.2 901.5 1083.8 900.9 1085.8 897.7L1103.6 864.9 1143.3 853.6 1103.2 927.8C1101.5 929.9 1103 933.9 1106.2 935.9 1108.5 936.5 1112.3 936.2 1114.3 933L1159.3 848.8 1192.4 839.5 1176.9 867.8C1174.9 871.1 1176.7 873.9 1179.9 876 1182 877.7 1186 876.2 1187.8 874.1L1208.4 834.7 1241.8 824.2 1233.6 858.1 1196 881.1C1193.1 882.8 1192.2 886.3 1194 889.2 1194.6 891.8 1199.3 893 1202.2 891.2L1229.7 874.4 1221.5 908.2 1139.2 957.5C1136.3 959.3 1135.5 962.8 1137.3 965.7 1139 968.6 1142.5 969.4 1145.4 967.6L1217.6 924.5 1208 964.2 1176.1 983.7C1173.2 985.4 1172.4 988.9 1174.2 991.8 1175.9 994.7 1179.4 995.6 1182.3 993.8L1203.8 981.7 1196.7 1010.9C1195.9 1014.4 1197.7 1017.3 1201.2 1018.1 1204.6 1019 1207.5 1017.2 1208.4 1013.7L1215.4 984.5 1227.8 1004.8C1229.6 1007.7 1233.1 1008.5 1236 1006.8S1239.7 1001.5 1238 998.6L1219.4 968.2 1229.2 927.4 1272.6 998.3C1274.4 1001.2 1277.9 1002.1 1280.8 1000.3 1283.6 998.5 1284.5 995 1282.7 992.1L1233.2 911 1241.3 877.2 1258.1 904.7C1259.9 907.6 1263.4 908.5 1266.3 906.7 1269.2 904.9 1270.1 901.4 1268.3 898.5L1245.3 860.9 1253.2 828.2 1277.2 851.3 1278.7 896.1C1279.3 898.7 1282.3 901.9 1284.9 901.3 1288.7 901 1290.4 898.9 1291.3 895.4L1290.4 863.1 1314.5 886.2 1317.3 981.9C1317.6 985.7 1319.7 987.5 1323.1 988.3 1326.9 988 1328.9 984.8 1329.5 982.4L1327.7 898 1357.6 927.5 1358.7 963.6C1357.9 967.1 1361.1 969.1 1364.6 969.9 1367.2 969.3 1370.4 966.4 1370.1 962.6L1369.6 939 1391.9 959.2C1393.7 962.1 1397.4 961.8 1400.6 958.9 1402.4 956.8 1402 953 1400 951.3L1378 929.9 1402.7 929.7C1406.5 929.4 1408.5 926.2 1407.9 923.6 1408.7 920.1 1406.7 918.4 1404.4 917.8 1403.2 917.5 1403.2 917.5 1402 917.2L1365.9 918.4 1336 888.9 1419.2 886.8C1422.7 887.7 1424.8 884.4 1425.6 880.9 1425 878.3 1422.9 876.6 1420.6 876 1419.4 875.8 1419.4 875.8 1419.4 875.8L1322.8 877.1 1298.8 854 1331.1 853.2C1334.9 852.9 1336.6 850.8 1337.4 847.3 1336.8 844.7 1335.1 841.8 1332.7 841.2 1331.6 841 1331.6 841 1330.4 840.7L1285.6 842.2 1261.5 819.1 1293.5 809.5 1332.9 830.2C1336.1 832.2 1340.2 830.7 1341.9 828.7 1342.8 825.2 1342.5 821.4 1339 820.5L1310.6 805 1342.8 794.3 1427.9 840.8C1429.9 842.5 1434 841 1435.7 838.9 1436.6 835.4 1436.3 831.7 1433 829.7L1360 789.8 1399.7 778.4 1431.3 795.9C1434.5 797.9 1438.6 796.4 1439.4 792.9 1441.2 790.9 1440.8 787.1 1437.6 785.1L1415.7 773.6 1445 764.7C1447.6 764.1 1449.7 760.8 1449.3 757.1 1448.4 755.6 1446.4 753.9 1444.1 753.3 1444.1 753.3 1442.9 753 1441.7 752.7L1412.4 761.7 1423.9 739.8C1425.6 737.7 1424.1 733.7 1422.1 732 1420.9 731.7 1420.9 731.7 1420.9 731.7 1417.4 730.8 1414.5 732.6 1413.9 734.9L1396.4 766.5 1356.4 779.1 1396.5 704.8C1397.4 701.3 1396.8 698.7 1393.5 696.7 1393.5 696.7 1392.4 696.4 1392.4 696.4 1390 695.8 1387.4 696.4 1385.4 699.7L1339.2 783.6 1307.3 793.1 1322.8 764.8C1323.6 761.3 1323.3 757.5 1319.8 756.7 1320.1 755.5 1318.9 755.2 1318.9 755.2 1316.6 754.6 1313.7 756.4 1312 758.5L1291.3 797.9 1258.2 807.2 1266.1 774.6 1303.8 751.5C1306.7 749.8 1307.8 745.1 1306 742.2 1304 740.5 1300.5 739.6 1297.8 740.2L1270.1 758.2 1278.2 724.4 1359.3 674.8C1362.2 673.1 1363 669.6 1361.3 666.7 1359.5 663.8 1356 662.9 1353.1 664.7L1282.2 708.1 1292 667.2 1322.4 648.7C1325.3 646.9 1326.2 643.4 1324.4 640.5S1319.1 636.7 1316.2 638.5L1296 650.9 1303 621.7C1303.8 618.2 1302.1 615.3 1298.6 614.5 1295.1 613.7 1292.2 615.4 1291.3 618.9L1284.3 648.1 1270.7 627.5C1269.8 626.1 1269 624.6 1267.8 624.4 1266.6 624.1 1264 624.7 1262.6 625.6 1259.7 627.3 1258.8 630.8 1260.6 633.7L1280.3 664.4 1270.5 705.2 1226 634C1225.1 632.6 1224.2 631.1 1223 630.8 1221.9 630.6 1219.2 631.2 1217.8 632 1214.9 633.8 1214.1 637.3 1215.8 640.2L1266.6 721.6 1258.4 755.4 1241.9 726.7C1241 725.3 1238.6 724.7 1237.5 724.4 1236.3 724.2 1235.1 723.9 1233.7 724.8 1230.8 726.5 1229.7 731.2 1231.7 732.9L1254.4 771.7 1246.6 804.4 1221.3 781 1221 736.5C1220.4 733.9 1218.6 731 1216.3 730.4 1215.1 730.1 1215.1 730.1 1214.8 731.3 1211.3 730.5 1208.1 733.4 1208.5 737.2L1209.3 769.5 1184.1 746.1 1182.7 649.5C1182.1 646.9 1180.1 645.2 1177.7 644.6 1176.6 644.3 1176.6 644.3 1176.6 644.3 1172.8 644.6 1169.9 646.4 1170.2 650.2L1172.1 734.6 1142.1 705.1 1141 669C1140.7 665.3 1138.6 663.5 1136.3 663 1136.3 663 1135.1 662.7 1135.1 662.7 1131.3 663 1129.3 666.2 1128.7 668.6L1130.1 693.6 1108.1 672.2C1106.9 671.9 1105.8 671.7 1104.6 671.4 1103.4 671.1 1100.8 671.7 1099.4 672.6 1097.4 675.8 1096.5 679.3 1099.7 681.3L1121.7 702.7 1097 702.9C1093.2 703.2 1091.2 706.4 1090.7 708.7 1091 712.5 1094.2 714.5 1097.7 715.4L1133.8 714.2 1164 742.5 1080.8 744.6C1077 744.9 1073.8 747.9 1074.4 750.5 1074.7 754.3 1076.5 757.2 1080.3 756.9Z" fill="rgba(255, 255, 255, 0.04)"></path><path d="M717.6 1456L641.8 1391.9 638.9 1364.7 689 1329.5 714.5 1340.9 748.1 1434.7C748.8 1435.6 748.8 1435.6 749.4 1436.6 750.8 1438.6 753.2 1439.9 756.8 1438.8 759.8 1436.7 761 1434.3 760 1430.7L730.4 1348.9 769.4 1366.9 782.9 1402.9C782.9 1402.9 783.6 1403.8 783.6 1403.8 785 1405.8 787.4 1407.1 791 1406 793.6 1405.6 795.2 1401.6 794.1 1397.9L786.2 1374.2 814.9 1387.8C817.2 1389.1 820.9 1388 823.1 1384.9S822.6 1377.9 819.6 1375.7L791.6 1363 814.7 1354.2C818.4 1353.1 819.9 1349 818.8 1345.4 817.5 1343.4 814.4 1341.2 810.8 1342.3L774.8 1355.8 735.1 1336.8 816.9 1307.2C820.6 1306.1 822.1 1302.1 821.7 1299.4 819.7 1296.5 816.6 1294.2 813 1295.3L719.9 1329.8 693.7 1317.4 688.6 1258 712.1 1241.4 810.1 1257.7C813.4 1258.3 816.4 1256.2 817 1252.9S815.5 1246.6 812.1 1246L725.9 1231.8 762.2 1206.3 799 1212.7C802.4 1213.3 805.3 1211.2 806.9 1207.2S805.4 1200.9 802 1200.3L776 1196.6 802.5 1178C805.5 1175.9 805.4 1171.6 803.3 1168.7 801.2 1165.7 797.9 1165.1 794.9 1167.2L768.4 1185.8 772.8 1160.7C774.4 1156.7 772.3 1153.8 768 1153.9 764.6 1153.3 761.7 1155.3 761.1 1158.7L754.7 1195.5 718.3 1221 734.2 1135C734.8 1131.7 732.1 1127.8 728.7 1127.2S722.4 1128.7 721.8 1132L704.6 1230.6 681 1247.2 626.1 1221.2 624.1 1193.3 688.2 1117.5C690.5 1114.4 689.4 1110.8 687.3 1107.9 684.3 1105.6 680.6 1106.7 677.7 1108.8L622 1175.7 618.3 1132.8 643.3 1103.6C645.5 1100.5 644.4 1096.9 642.4 1093.9 640 1092.7 635.7 1092.8 633.4 1095.8L617.2 1114.5 614.1 1083C613.7 1080.3 610.7 1078.1 607.4 1077.5 603.7 1078.6 601.5 1081.6 601.9 1084.3L604.9 1115.8 584.6 1099.3C582.2 1098.1 577.9 1098.2 576.6 1100.5 573.7 1102.6 574.1 1105.2 576.1 1108.2 576.1 1108.2 576.8 1109.2 576.8 1109.2L606 1134.1 609.7 1177 542.8 1121.3C539.8 1119 536.4 1118.5 534.2 1121.5 531.9 1124.6 532.3 1127.2 533.7 1129.2 534.4 1130.2 534.4 1130.2 534.4 1130.2L611.8 1194.6 613.8 1222.5 563.7 1257.6 539.1 1245.6 503.9 1151.5C503.5 1148.9 499.5 1147.3 496.8 1147.7 493.2 1148.8 491.6 1152.8 492.7 1156.5L522.3 1238.3 483.3 1220.3 469.8 1184.3C468.7 1180.7 465.6 1178.4 462.7 1180.5 459 1181.6 457.5 1185.6 457.9 1188.2L467.4 1212.3 438.8 1198.7C435.5 1198.1 431.8 1199.2 429.6 1202.2 429.3 1203.9 429.7 1206.6 431 1208.5 431.7 1209.5 431.7 1209.5 433.4 1209.8L462 1223.4 438 1233C434.3 1234.1 433.7 1237.4 434.1 1240.1 434.8 1241.1 434.8 1241.1 435.5 1242.1 436.9 1244 439.2 1245.3 441.9 1244.9L477.9 1231.4 516.9 1249.4 435.1 1279C432.1 1281.1 429.9 1284.1 431.9 1287.1 431.6 1288.8 431.6 1288.8 432.3 1289.7 433.7 1291.7 437 1292.3 439.7 1291.9L533.7 1256.7 558.3 1268.7 564.1 1329.2 541.5 1345 442.9 1327.8C439.5 1327.2 435.6 1329.9 435 1333.3S437.2 1340.6 440.5 1341.1L526.8 1355.4 491.4 1380.2 453.7 1374.4C450.3 1373.9 447.4 1375.9 446.8 1379.3 446.2 1382.6 448.3 1385.6 451.6 1386.2L476.7 1390.5 450.2 1409.2C448.2 1410.5 446.6 1414.6 448.7 1417.5 450.8 1420.5 455.8 1421.3 457.7 1420L484.3 1401.3 479.9 1426.4C479.6 1428.1 479.3 1429.8 480 1430.7 481.4 1432.7 483 1433 484.7 1433.3 488 1433.9 491 1431.8 491.6 1428.5L499 1391 534.4 1366.2 518.4 1452.1C518.1 1453.8 518.8 1454.8 520.2 1456.8 520.9 1457.7 521.6 1458.7 523.3 1459 526.6 1459.6 530.5 1456.8 531.1 1453.5L549.1 1355.9 571.7 1340 625.9 1365 629.6 1393.2 564.5 1469.7C563.2 1472 562.6 1475.4 564 1477.3 564.7 1478.3 564.7 1478.3 565.7 1477.6 567.7 1480.6 572 1480.5 574.3 1477.4L630 1410.5 634.3 1454.4 609.4 1483.6C608.1 1485.9 608.5 1488.6 609.9 1490.6 609.9 1490.6 610.6 1491.5 610.6 1491.5 612.7 1494.5 617 1494.4 619.2 1491.3L635.7 1471 638.8 1502.5C638.5 1504.2 639.2 1505.2 639.9 1506.2 641.3 1508.1 643.6 1509.4 644.6 1508.7 649 1508.6 651.2 1505.6 651.8 1502.2L648.7 1470.7 667.4 1486.9C670.5 1489.1 674.8 1489 677 1486 678.3 1483.6 678.2 1479.3 675.9 1478L646.6 1453.1 642.9 1410.2 709.9 1465.9C712.9 1468.1 716.5 1467 719.5 1465 720.8 1462.6 720.7 1458.3 717.6 1456ZM675.5 1322.9L637.2 1349.8 631.3 1353.9 624.9 1351 583.5 1331.7 576.4 1327.9 575.9 1320.9 571.8 1275.4 571.3 1268.4 577.2 1264.3 615.5 1237.4 621.4 1233.3 627.8 1236.1 669.2 1255.4 675.6 1258.3 676.8 1266.2 680.9 1311.8 681.4 1318.7 675.5 1322.9Z" fill="rgba(255, 255, 255, 0.04)"></path><path d="M350.3 727.2L371.1 695.9 383.2 718.1C384.2 720.6 387.8 722 391.4 721 394 718.7 395.4 715.2 394.3 712.7L379 683.1 398.6 654.1 429 714.6C431.2 718.3 434.8 719.7 437.3 717.4 441 716.4 442.3 712.9 440.1 709.2L406.4 642.5 423.5 615.7 496.6 619.6 509.7 644.4 465.3 710.5C465.2 711.7 465.2 712.9 465.1 714.1 465 715.3 466.1 717.7 467.3 719 470.7 721.6 474.4 720.6 475.8 717.1L516.2 656.7 531.4 687.6 511.7 719C510.5 718.9 510.5 720.1 510.4 721.3 510.3 723.7 511.3 726.2 513.7 727.5 516 728.8 519.7 727.8 522.2 725.5L538 699.9 557.6 738.2C558.6 740.7 562.2 742.1 565.8 741.1 568.3 738.8 569.7 735.3 568.7 732.8L550.1 697 575.3 698.3C578.9 698.5 581.5 695 581.6 692.6 581.8 689 579.6 685.3 576 685.1L543.6 683.4 528.5 652.6 595.6 656.1C599.2 656.3 601.7 654 601.9 650.4 602.1 646.9 599.8 644.3 596.2 644.1L521.9 640.2 507.7 614.2 548.2 552.7 575.7 554.1 610.6 622.1C611.6 625.7 616.3 627.2 618.9 624.9 622.5 623.9 622.7 620.3 621.7 616.7L590.1 554.9 624.9 556.7 640.1 587.6C641.1 590 645.9 591.5 648.3 590.4S652.2 584.6 651.2 581L639.3 557.5 681.2 559.7C684.8 559.9 687.4 556.5 687.6 552.9 687.7 550.5 685.5 546.7 681.9 546.5L640 544.3 654.4 521.1C655.7 518.7 655.9 515.1 652.5 512.5 650.1 511.2 645.3 512.2 643.9 514.5L625.6 543.6 590.8 541.7 628.8 483.6C630.1 480.1 630.3 476.5 626.9 473.9 624.5 472.6 619.7 473.5 618.4 475.9L576.4 540.9 548.9 539.5 515.1 474 532 449.7 606.3 453.6C609.9 453.8 612.4 451.5 612.6 447.9 612.8 444.3 610.6 440.6 607 440.4L539.9 436.9 558.3 407.8 590.6 409.5C594.2 409.7 596.8 407.4 596.9 403.8 597.1 400.2 594.9 397.7 591.3 397.5L566.1 396.2 588.3 362.5C589.7 360.2 588.7 355.3 586.4 354 582.8 352.6 579.2 352.4 577.9 356L554.4 390.8 541.3 364.8C539.1 362.3 535.5 360.9 533.1 362 530.6 363.1 529.3 365.4 529.2 367.8 529.2 367.8 529.1 369 530.2 370.3L546.5 403.6 528.1 432.6 494.3 368.3C493.3 364.7 489.7 363.3 486 365.5 484.8 366.6 483.5 367.8 483.4 370.2 483.3 371.4 483.2 372.6 483.2 373.8L520.3 444.2 504.6 467.4 431.5 463.6 417.4 435.2 458 372.4C460.6 369 459.6 365.3 456.1 363.9 453.8 361.4 450.1 362.4 447.6 365.9L410.9 422.8 394.5 391.9 412.8 364C414.1 361.7 413.1 358 410.8 355.5 407.3 354.1 403.7 353.9 402.3 357.5L388 378.3 370.6 345C369.5 341.3 365.9 341.1 362.3 342.1 361 343.2 359.7 345.6 359.6 348 359.6 348 359.5 349.2 359.4 350.4L378 386.2 348 384.6C345.6 384.5 341.9 386.7 341.7 390.3 341.5 393.9 345 396.5 347.4 396.6L384.5 398.6 400.9 429.5 327.8 425.6C324.2 425.4 321.6 428.9 321.4 432.5S323.5 438.6 327.1 438.8L407.4 443 420.4 469 379.9 530.5 348.8 528.9 314 459.7C311.7 457.2 308.2 455.8 304.5 456.8 303.3 457.9 301.9 460.3 301.8 462.7 301.7 463.9 301.7 465.1 302.8 466.3L334.4 528.1 299.6 526.2 283.3 495.3C282.2 492.9 278.7 491.5 275 492.5 272.5 494.8 271.1 498.3 272.2 500.8L285.3 525.5 246.9 523.4C244.5 523.3 240.7 526.7 240.6 529.1 240.4 532.7 243.8 536.5 246.2 536.6L284.6 538.7 269 560.7C268.9 561.9 268.8 563.1 268.8 564.3 268.7 566.7 269.7 569.1 270.9 570.4 274.4 571.8 278 570.8 280.6 568.5L298.9 539.4 333.7 541.3 295.8 599.3C293.2 602.8 294.2 606.5 296.5 607.8 300 610.4 303.6 609.4 306.2 607.1L348.1 542 379.2 543.7 413 609.2 397.3 633.6 317 629.3C313.4 629.1 310.9 631.4 310.7 635 310.5 638.6 312.8 641.1 316.4 641.3L389.5 645.2 369.9 674.2 332.7 672.2C330.3 672.1 326.6 675.5 326.4 679.1 326.2 682.7 329.6 685.3 332 685.4L362 687 339.8 720.6C339.7 721.8 339.7 721.8 339.7 723 339.5 725.4 340.6 727.9 341.7 729.2 345.3 730.6 348.9 729.5 350.3 727.2ZM393.6 544.5L390.4 537.1 394.3 531.3 427 481.3 430.9 475.5 438.1 475.9 496.8 479 504 479.4 507.3 485.6 534.5 538.7 537.8 544.9 533.8 551.9 501.2 600.6 497.2 607.6 490 607.3 431.3 604.1 424.1 603.8 420.9 596.4 393.6 544.5Z" fill="rgba(255, 255, 255, 0.04)"></path><path d="M1020.4 2329.8L983.8 2350.2 983.1 2324.9C983.2 2322.3 980.7 2319.4 977 2318.7 973.7 2319.6 970.9 2322.1 971.8 2325.4L971.6 2357.1 943.7 2374.3 944.2 2308.2C943.4 2304.9 940.8 2302.1 938.2 2301.9 933.8 2302.2 931 2304.8 931.9 2308L931.5 2381.1 888.1 2406 894.6 2348.9 848.6 2383.4 848.2 2333.3 911.1 2296.1C912.1 2296.7 912.7 2295.6 913.3 2294.6 914.5 2292.5 914.7 2289.8 913.2 2287.6 911.7 2285.4 908 2284.6 904.7 2285.5L847.9 2319.3 848.7 2286.6 876 2270.4C877.6 2270 878.2 2268.9 878.8 2267.9 879.4 2266.9 879.6 2264.2 878.1 2261.9 876.6 2259.7 872.9 2259 870.6 2260.4L848.4 2272.6 847.6 2230.6C848.4 2226.9 845.3 2225.1 841.5 2224.4 838.9 2224.2 836 2226.7 836.3 2231.1L836.1 2272.4 814.2 2259.9C811.1 2258.1 807.2 2260 806 2262.1 804.3 2265.2 805.1 2268.5 808.3 2270.3L836.4 2286.4 835.6 2319.2 779.4 2286.9C776.2 2285.1 773 2286 771.2 2289.2 770 2291.2 770.3 2295.6 773.4 2297.3L835.8 2333.2 836.2 2383.2 790.3 2349.9 796.7 2406.2 753 2381.1 752.8 2309.1C752.5 2304.8 749.4 2303 746.7 2302.8 744.1 2302.7 741.2 2305.2 740.5 2308.9L741.6 2374.5 713.5 2358.4 712.6 2326.1C713.4 2322.4 710.8 2319.6 706.5 2319.9 703.8 2319.7 701 2322.2 701.3 2326.5L701 2351.3 664.5 2330.4C661.4 2328.6 658.1 2329.5 656.3 2332.6S655.4 2339 658.6 2340.8L695 2361.7 673.8 2374.4C670 2376.4 669.2 2380.1 670.7 2382.3 672.6 2386.2 676.3 2386.9 679.2 2384.4L707.5 2368.8 735.6 2385 678.4 2417.2C675.5 2419.7 674.8 2423.4 676.3 2425.6 678.2 2429.5 681.9 2430.3 684.8 2427.7L747 2391.5 790.8 2416.6 738.9 2439.4 790.8 2462.3 747.5 2487.2 685 2451.4C681.9 2449.6 678 2451.5 676.8 2453.6 675 2456.7 675.9 2460 679.1 2461.8L736.3 2494.6 707.4 2511.3 679.3 2495.1C676.2 2493.4 672.9 2494.2 671.1 2497.4 669.9 2499.4 670.2 2503.8 673.3 2505.6L695.2 2518.1 659.6 2539.2C655.7 2541.1 654.9 2544.8 657.5 2547.7 659 2549.9 662.1 2551.7 664.9 2549.2L701.6 2528.7 702.3 2554C702.1 2556.7 704.6 2559.5 707.3 2559.6 710 2559.8 712.2 2558.3 712.8 2557.3 713.4 2556.2 714 2555.2 713.6 2553.6L713.8 2521.8 741.6 2504.6 741.1 2570.7C742 2574 744.5 2576.8 747.2 2577 749.9 2577.1 752.1 2575.6 753.3 2573.6 753.9 2572.5 753.9 2572.5 753.4 2570.9L753.9 2497.8 797.2 2472.9 790.7 2530 836.8 2495.6 837.1 2545.6 774.3 2582.8C772 2584.3 770.2 2587.4 772.2 2591.3 773.6 2593.5 777.4 2594.3 780.6 2593.4L837.4 2559.6 836.6 2592.3 809.3 2608.5C806.1 2609.4 805.3 2613.1 807.2 2617 808.7 2619.2 812.4 2620 815.7 2619.1L836.9 2606.3 837.7 2648.3C837 2652 840.1 2653.8 843.8 2654.5 845.4 2654.1 847.7 2652.6 848.3 2651.6 848.9 2650.5 849.5 2649.5 849 2647.8L849.2 2606.5 871.1 2619C874.2 2620.8 878.1 2618.9 879.3 2616.8L879.3 2616.8C881.1 2613.7 880.2 2610.4 877.1 2608.6L849 2592.5 849.8 2559.7 906 2592C909.1 2593.8 912.4 2592.9 914.2 2589.8S915.1 2583.4 911.9 2581.6L849.5 2545.7 849.1 2495.7 895.1 2529 888.6 2472.7 932.3 2497.8 932.5 2569.8C932.8 2574.2 935.9 2575.9 938.6 2576.1 941.3 2576.3 944.1 2573.7 944.9 2570L944.8 2505 971.9 2520.5 972.7 2552.8C972 2556.5 974.5 2559.3 978.8 2559.1 981.5 2559.2 984.3 2556.7 985.1 2553L984.4 2527.7 1020.8 2548.6C1023.9 2550.3 1027.2 2549.5 1029 2546.3S1029.9 2539.9 1026.8 2538.1L990.3 2517.2 1011.5 2504.5C1013.1 2504 1013.7 2503 1014.3 2502 1015.5 2499.9 1015.1 2498.2 1014.6 2496.6 1012.7 2492.7 1009 2492 1006.2 2494.5L977.8 2510.1 949.7 2494 1006.9 2461.8C1007.5 2460.7 1008.1 2459.7 1008.7 2458.6 1009.9 2456.6 1009.5 2454.9 1009 2453.3 1007.1 2449.4 1003.4 2448.7 1000.6 2451.2L938.3 2487.4 894.6 2462.3 946.4 2439.5 894.5 2416.6 937.9 2391.7 1000.3 2427.5C1003.4 2429.3 1007.3 2427.4 1008.5 2425.3 1010.3 2422.2 1009.4 2418.9 1006.3 2417.1L950.1 2384.9 977.9 2367.6 1006 2383.8C1009.2 2385.6 1012.4 2384.7 1014.2 2381.5S1015.1 2375.1 1012 2373.4L990.1 2360.8 1025.8 2339.7C1027.4 2339.3 1028 2338.3 1028.6 2337.2 1029.2 2336.2 1029.3 2333.5 1027.9 2331.3 1026.4 2329 1023.2 2327.2 1020.4 2329.8ZM917.4 2439.4L874.9 2458 880.4 2504 842.2 2476.5 805.6 2504 809.9 2458 767.9 2439.5 810.4 2420.9 805 2374.9 842.1 2401.8 879.7 2374.9 874.4 2420.3 917.4 2439.4Z" fill="rgba(255, 255, 255, 0.04)"></path><path d="M901.9 1763L910.2 1787.9 894.6 1785.4C893 1785 890.9 1786.3 890 1788.5 890.2 1790.6 891.4 1792.6 893.5 1792.4L913 1796.2 920.4 1815.3 879.8 1807.4C877.7 1807.5 875.7 1808.7 875.3 1810.4 875 1813.1 876.2 1815.1 878.3 1814.9L923.2 1823.6 933.5 1853.1 899.1 1842.5 915 1874.8 884.2 1869.2 868.6 1826.3C869.1 1825.8 868.5 1825.3 867.9 1824.8 866.8 1823.8 865.2 1823.4 863.6 1824.1 862.1 1824.7 861.2 1826.9 861.3 1829L875.6 1867.8 855.6 1863.5 848.8 1844.9C848.7 1843.9 848.1 1843.4 847.6 1842.9 847 1842.4 845.4 1842 843.8 1842.7 842.3 1843.3 841.4 1845.5 842 1847.1L847 1862.1 821.1 1857.8C818.9 1856.9 817.4 1858.6 816.5 1860.8 816.1 1862.4 817.4 1864.5 820 1864.8L845.4 1869.7 835.2 1881.7C833.8 1883.4 834.5 1886 835.6 1886.9 837.3 1888.4 839.5 1888.2 840.9 1886.5L854.1 1871.1 874.1 1875.4 847.8 1906.2C846.3 1907.9 846.5 1910 848.2 1911.5 849.4 1912.5 852.1 1912.8 853.5 1911.1L882.7 1876.8 913.5 1882.4 887.7 1906.7 923.1 1909.3 902.6 1933.2 858.3 1925C855.7 1924.7 854.2 1926.4 853.8 1928.1 853.4 1929.7 854.6 1931.7 856.8 1932.6L897.3 1939.5 884.1 1954.9 864.2 1951.7C862 1950.8 860 1952 859.6 1954.7 859.2 1956.4 860.5 1958.4 863.2 1958.7L878.3 1961.8 861.3 1981.7C859.8 1983.4 860 1985.6 861.7 1987S865.5 1988.3 867 1986.6L884 1966.6 889.4 1981.1C890.1 1983.7 892.3 1984.6 893.9 1983.9 896.5 1983.2 897.4 1981 896.2 1979L889.8 1959.8 903 1944.4 916.2 1983.2C917.4 1985.2 919.6 1986.1 921.1 1985.5 923.7 1984.7 924.6 1982.5 923.4 1980.5L908.3 1938.1 928.8 1914.1 936.8 1948.6 956.8 1919.3 967.2 1948.8 938 1983.1C936.5 1984.8 937.3 1987.4 938.4 1988.4 940.1 1989.8 942.2 1989.7 943.7 1987.9L970.5 1956.6 977.3 1976.2 964.2 1991.6C962.7 1993.3 962.9 1995.5 964.6 1996.9 965.8 1997.9 968.4 1998.2 969.9 1996.5L980.1 1984.5 989 2008.8C989.7 2011.4 991.9 2012.3 993.9 2011.1 995.5 2010.4 996.9 2008.7 995.7 2006.7L987.4 1981.8 1003 1984.3C1004.6 1984.7 1006.6 1983.5 1007 1981.8 1007.4 1980.2 1006.8 1978.7 1006.2 1978.2 1005.6 1977.7 1005.1 1977.2 1004 1977.3L984.6 1973.5 977.2 1954.4 1017.7 1962.4C1019.8 1962.2 1021.9 1961 1022.3 1959.3 1022.7 1957.7 1022 1956.2 1020.9 1955.2 1020.3 1954.7 1020.3 1954.7 1019.3 1954.8L974.4 1946.1 964.1 1916.6 998.4 1927.2 982.6 1894.9 1013.3 1900.5 1029 1943.4C1029.6 1944.9 1031.4 1946.4 1034 1945.6 1035.5 1945 1036.4 1942.8 1036.2 1940.7L1022 1901.9 1042 1906.2 1048.8 1924.8C1049 1926.9 1051.2 1927.8 1053.8 1927 1055.3 1926.4 1056.2 1924.2 1056 1922.1L1050.6 1907.6 1076.5 1911.9C1078.7 1912.8 1080.2 1911.1 1081 1908.9 1081 1907.9 1080.3 1906.3 1079.7 1905.8 1079.2 1905.3 1078.6 1904.9 1077.5 1904.9L1052.1 1900 1062.4 1888.1C1063.8 1886.3 1063.1 1883.7 1061.9 1882.8L1061.9 1882.8C1060.2 1881.3 1058.1 1881.5 1056.6 1883.2L1043.5 1898.6 1023.5 1894.3 1049.8 1863.5C1051.2 1861.8 1051.1 1859.7 1049.3 1858.2S1045.5 1856.9 1044.1 1858.7L1014.9 1892.9 984.1 1887.4 1009.8 1863 974.5 1860.5 994.9 1836.5 1039.2 1844.7C1041.9 1845 1043.4 1843.3 1043.8 1841.7 1044.2 1840 1042.9 1838 1040.7 1837.1L1000.8 1829.7 1013.4 1814.8 1033.4 1818C1035.6 1818.9 1037.6 1817.7 1037.9 1815 1038.3 1813.4 1037.1 1811.3 1034.9 1810.4L1019.3 1808 1036.3 1788C1037.8 1786.3 1037.6 1784.2 1035.9 1782.7S1032.1 1781.4 1030.6 1783.1L1013.6 1803.1 1008.2 1788.6C1008.1 1787.6 1007.5 1787.1 1006.9 1786.6 1005.8 1785.6 1004.7 1785.7 1003.7 1785.8 1001.1 1786.5 1000.2 1788.7 1001.4 1790.8L1007.7 1809.9 994.6 1825.4 981.4 1786.5C980.8 1786 980.2 1785.5 979.7 1785 978.5 1784.1 977.5 1784.2 976.4 1784.2 973.8 1785 972.9 1787.2 974.2 1789.2L989.2 1831.6 968.8 1855.6 960.7 1821.1 940.7 1850.4 930.4 1820.9 959.6 1786.6C961 1784.9 960.3 1782.3 959.2 1781.4 957.5 1779.9 955.3 1780.1 953.9 1781.8L927.6 1812.6 920.2 1793.5 933.4 1778.1C934.8 1776.4 934.7 1774.3 933 1772.8S929.1 1771.5 927.7 1773.2L917.4 1785.2 908.6 1760.9C908.5 1759.9 907.9 1759.4 907.4 1758.9 906.8 1758.4 905.2 1758 903.6 1758.6 902.1 1759.3 900.6 1761 901.9 1763ZM957.4 1839L963.9 1867.2 992.8 1869.1 971.5 1889.4 984.2 1915 956.4 1907.1 940.2 1930.8 933.7 1902.6 904.8 1900.6 925.6 1880.9 913.4 1854.7 940.7 1863.2 957.4 1839Z" fill="rgba(255, 255, 255, 0.04)"></path><path d="M1151.2 2006.6L1167.1 2016.7 1156.1 2022.9C1154.9 2023.5 1154.2 2025.3 1154.8 2027.1 1155.9 2028.3 1157.7 2029 1158.9 2028.4L1173.6 2020.5 1188.3 2029.9 1158.4 2045.8C1156.6 2047 1155.9 2048.8 1157.1 2050 1157.6 2051.8 1159.4 2052.5 1161.3 2051.3L1194.2 2033.7 1207.7 2041.9 1206.7 2078.4 1194.5 2085.3 1160.9 2063.9C1160.3 2063.9 1159.7 2063.9 1159.1 2063.8 1158.5 2063.8 1157.3 2064.4 1156.7 2065 1155.4 2066.7 1155.9 2068.6 1157.7 2069.2L1188.4 2088.7 1173.1 2096.7 1157.2 2087.2C1157.2 2086.6 1156.6 2086.6 1156 2086.6 1154.8 2086.5 1153.6 2087.1 1153 2088.3 1152.3 2089.5 1152.9 2091.3 1154 2092.5L1167 2100.1 1148.1 2110.4C1146.9 2110.9 1146.3 2112.7 1146.8 2114.5 1148 2115.7 1149.8 2116.4 1151 2115.8L1168.7 2106.1 1168.3 2118.7C1168.2 2120.5 1170 2121.8 1171.2 2121.8 1173 2121.9 1174.8 2120.7 1174.9 2118.9L1175.4 2102.7 1190.6 2094.8 1189.6 2128.4C1189.6 2130.2 1190.7 2131.4 1192.5 2131.5 1194.3 2131.5 1195.6 2130.3 1195.6 2128.5L1196.7 2091.4 1209.5 2083.9 1240.8 2103.4 1240.4 2117.2 1206.8 2135.5C1205 2136 1204.3 2138.4 1205.5 2139.6 1206 2141.5 1207.8 2141.5 1209.7 2141L1240.2 2124.4 1239.6 2141.8 1224.4 2149.8C1223.2 2150.4 1222.5 2152.7 1223.1 2154S1226 2155.8 1227.9 2155.3L1239.4 2149 1238.8 2170C1238.8 2171.8 1240.5 2173.1 1242.3 2173.1 1243.5 2173.2 1245.4 2172 1245.4 2170.2L1246 2149.2 1257.8 2156.2C1259 2156.8 1260.8 2156.9 1262.1 2155.1 1262.7 2153.9 1262.2 2151.5 1261 2150.9L1246.2 2142 1246.8 2124.6 1276.2 2142.9C1278 2143.5 1279.8 2143.6 1281.1 2141.8 1281.7 2140.7 1281.2 2138.2 1280 2137.6L1247 2117.4 1247.4 2103.6 1279.7 2086 1292.1 2094.1 1291 2131.3C1290.9 2133.1 1292.1 2134.4 1293.9 2134.4 1295.7 2134.5 1297.5 2133.3 1297.6 2131.5L1298.6 2097.9 1313.3 2106.8 1312.8 2123C1312.8 2124.8 1313.9 2126 1315.7 2126 1317.5 2126.1 1318.8 2124.9 1318.8 2123.1L1319.2 2110.5 1336.3 2121.2C1337.5 2121.9 1339.9 2121.3 1340.5 2120.2 1341.2 2118.4 1341.2 2116.6 1339.4 2115.9L1321.8 2104.6 1334.6 2097.8C1335.8 2096.6 1336.5 2094.8 1335.9 2093.6 1335.3 2092.4 1334.1 2091.8 1332.9 2091.7 1332.9 2091.7 1332.3 2091.7 1331.7 2092.3L1315.3 2100.8 1300.5 2092 1332.3 2074.3C1334.1 2073.8 1334.7 2072 1333.6 2070.1 1333 2069.5 1332.4 2068.9 1331.2 2068.9 1330.6 2068.9 1330 2068.8 1329.4 2068.8L1294.6 2088.2 1282.8 2080.7 1283.9 2044.1 1297.9 2036.7 1329.8 2056.2C1331.5 2057.5 1333.4 2056.9 1334 2055.1 1335.2 2054 1334.7 2052.2 1332.9 2050.9L1304 2033.3 1319.3 2024.7 1333.4 2033.5C1334.6 2034.2 1336.4 2033.6 1337.7 2032.4 1338.3 2030.7 1338.4 2028.9 1336.6 2028.2L1326 2021.3 1342.5 2012.2C1344.3 2011.6 1344.3 2009.8 1343.8 2008 1343.2 2007.4 1342 2006.8 1340.8 2006.7 1340.8 2006.7 1340.2 2006.7 1339.6 2006.7L1321.9 2016.4 1322.4 2001.4C1322.4 2000.2 1321.3 1998.3 1319.5 1998.3 1317.7 1998.2 1316.4 2000 1316.4 2001.2L1315.8 2019.8 1300.6 2028.4 1301.6 1991.8C1301.7 1990 1299.9 1988.7 1298.1 1988.7S1295.1 1989.8 1295.1 1991.6L1293.9 2031.8 1281.1 2038.6 1249.8 2019.1 1250.3 2003.5 1284.4 1985.3C1285.7 1984.1 1286.3 1982.3 1285.8 1980.5 1285.2 1979.9 1284 1979.3 1282.8 1979.2 1282.2 1979.2 1281.6 1979.2 1281 1979.8L1250.5 1996.3 1251 1978.9 1266.3 1970.3C1267.5 1969.8 1268.1 1968 1267.6 1966.2 1266.4 1964.9 1264.6 1964.3 1263.4 1964.8L1251.2 1971.7 1251.8 1952.5C1251.8 1951.3 1250.1 1949.5 1248.9 1949.4 1247.1 1949.4 1245.2 1951.1 1245.2 1952.3L1244.6 1971.5 1233.4 1964C1232.8 1964 1232.2 1963.9 1231.6 1963.9 1230.4 1963.9 1229.2 1964.5 1228.6 1965 1227.9 1966.8 1228.5 1968.6 1229.7 1969.9L1244.4 1978.7 1243.9 1996.1 1214.4 1977.8C1212.7 1976.6 1210.8 1977.1 1210.2 1978.3 1208.9 1980.1 1209.5 1981.9 1210.7 1983.1L1243.7 2003.3 1243.2 2018.9 1210.9 2036.5 1198.5 2029 1199.7 1988.8C1199.7 1987 1198.6 1985.8 1196.8 1985.7 1195 1985.7 1193.7 1986.8 1193.7 1988.6L1192.6 2025.2 1177.9 2015.8 1178.4 1997.2C1178.5 1996 1176.7 1994.1 1174.9 1994.1 1173.1 1994 1171.9 1995.8 1171.8 1997L1171.4 2012 1154.3 2001.3C1153.7 2001.3 1153.7 2001.3 1153.1 2001.2 1151.9 2001.2 1150.7 2001.8 1150.1 2002.4 1149.4 2004.1 1150 2006 1151.2 2006.6ZM1243 2026.1L1246.7 2024.4 1249.6 2026.3 1275 2042 1277.9 2043.9 1277.8 2047.5 1277 2076.9 1276.9 2080.5 1273.8 2082.2 1247.6 2096.4 1244.5 2098.2 1241 2096.2 1216.2 2080.5 1212.7 2078.6 1212.8 2075 1213.6 2045.6 1213.7 2042 1217.4 2040.3 1243 2026.1Z" fill="rgba(255, 255, 255, 0.04)"></path><path d="M1279.6 2513.1L1299.8 2525.1 1286.3 2533.4C1284.8 2534.1 1284.1 2536.4 1284.8 2538.6 1286.3 2540.1 1288.6 2540.9 1290.1 2540.1L1308.1 2529.7 1326.8 2540.9 1290.1 2561.9C1287.8 2563.4 1287.1 2565.6 1288.5 2567.1 1289.3 2569.4 1291.5 2570.1 1293.8 2568.6L1334.3 2545.4 1351.6 2555.2 1351.5 2600.9 1336.5 2609.9 1293.8 2584.4C1293 2584.4 1292.3 2584.4 1291.5 2584.4 1290.8 2584.4 1289.3 2585.1 1288.5 2585.9 1287 2588.1 1287.8 2590.4 1290 2591.1L1329 2614.4 1310.2 2624.9 1290 2613.6C1290 2612.9 1289.3 2612.9 1288.5 2612.9 1287 2612.9 1285.5 2613.6 1284.8 2615.1 1284 2616.6 1284.8 2618.9 1286.3 2620.4L1302.7 2629.4 1279.5 2642.9C1278 2643.6 1277.2 2645.9 1278 2648.1 1279.5 2649.6 1281.7 2650.4 1283.2 2649.6L1305 2636.9 1305 2652.6C1305 2654.9 1307.2 2656.4 1308.7 2656.4 1311 2656.4 1313.2 2654.9 1313.2 2652.7L1313.2 2632.4 1332 2621.9 1332 2663.9C1332 2666.2 1333.5 2667.7 1335.7 2667.7 1338 2667.7 1339.5 2666.2 1339.5 2663.9L1339.5 2617.4 1355.3 2607.7 1395 2631 1395 2648.2 1353.7 2672.2C1351.5 2672.9 1350.7 2675.9 1352.2 2677.4 1353 2679.7 1355.2 2679.7 1357.5 2678.9L1395 2657.2 1395 2679 1376.2 2689.5C1374.7 2690.2 1373.9 2693.2 1374.7 2694.7S1378.4 2697 1380.7 2696.2L1394.9 2688 1394.9 2714.2C1394.9 2716.5 1397.2 2718 1399.4 2718 1400.9 2718 1403.2 2716.5 1403.2 2714.2L1403.2 2688 1418.2 2696.2C1419.7 2697 1421.9 2697 1423.4 2694.8 1424.2 2693.3 1423.4 2690.3 1421.9 2689.5L1403.2 2679 1403.2 2657.2 1440.7 2679C1443 2679.8 1445.2 2679.8 1446.7 2677.5 1447.5 2676 1446.7 2673 1445.2 2672.3L1403.2 2648.2 1403.2 2631 1443 2607.8 1458.8 2617.5 1458.7 2664C1458.7 2666.3 1460.2 2667.8 1462.5 2667.8 1464.7 2667.8 1467 2666.3 1467 2664L1467 2622 1485.7 2632.6 1485.7 2652.8C1485.7 2655.1 1487.2 2656.6 1489.5 2656.6 1491.7 2656.6 1493.2 2655.1 1493.2 2652.8L1493.2 2637.1 1515 2649.8C1516.5 2650.6 1519.5 2649.8 1520.2 2648.3 1521 2646.1 1521 2643.8 1518.7 2643.1L1496.2 2629.6 1512 2620.6C1513.5 2619.1 1514.3 2616.8 1513.5 2615.3 1512.8 2613.8 1511.3 2613.1 1509.8 2613.1 1509.8 2613.1 1509 2613.1 1508.3 2613.8L1488 2625.1 1469.3 2614.5 1508.3 2591.3C1510.5 2590.6 1511.3 2588.3 1509.8 2586.1 1509 2585.3 1508.3 2584.6 1506.8 2584.6 1506 2584.6 1505.3 2584.6 1504.5 2584.6L1461.8 2610 1446.8 2601 1446.8 2555.3 1464.1 2545.5 1504.5 2568.8C1506.8 2570.3 1509 2569.6 1509.8 2567.3 1511.3 2565.8 1510.6 2563.6 1508.3 2562.1L1471.6 2541 1490.3 2529.8 1508.3 2540.3C1509.8 2541.1 1512.1 2540.3 1513.6 2538.8 1514.3 2536.6 1514.3 2534.3 1512.1 2533.6L1498.6 2525.3 1518.8 2513.3C1521.1 2512.6 1521.1 2510.3 1520.4 2508.1 1519.6 2507.3 1518.1 2506.6 1516.6 2506.6 1516.6 2506.6 1515.9 2506.6 1515.1 2506.6L1493.3 2519.3 1493.4 2500.6C1493.4 2499.1 1491.9 2496.8 1489.6 2496.8 1487.4 2496.8 1485.9 2499.1 1485.9 2500.6L1485.8 2523.8 1467.1 2535 1467.1 2489.3C1467.1 2487 1464.9 2485.5 1462.6 2485.5S1458.9 2487 1458.9 2489.3L1458.8 2539.5 1443.1 2548.5 1403.3 2525.2 1403.4 2505.7 1445.4 2481.8C1446.9 2480.3 1447.6 2478 1446.9 2475.8 1446.1 2475 1444.6 2474.3 1443.1 2474.3 1442.4 2474.3 1441.6 2474.3 1440.9 2475L1403.4 2496.7 1403.4 2475 1422.1 2463.8C1423.6 2463 1424.4 2460.8 1423.6 2458.5 1422.1 2457 1419.9 2456.2 1418.4 2457L1403.4 2466 1403.4 2442C1403.4 2440.5 1401.2 2438.2 1399.7 2438.2 1397.4 2438.2 1395.2 2440.5 1395.2 2442L1395.1 2466 1380.9 2457C1380.1 2457 1379.4 2457 1378.6 2457 1377.1 2457 1375.6 2457.7 1374.9 2458.5 1374.1 2460.7 1374.9 2463 1376.4 2464.5L1395.1 2475 1395.1 2496.7 1357.6 2474.9C1355.4 2473.4 1353.1 2474.2 1352.4 2475.7 1350.9 2477.9 1351.6 2480.2 1353.1 2481.7L1395.1 2505.7 1395.1 2525.2 1355.3 2548.4 1339.6 2539.4 1339.6 2489.2C1339.6 2486.9 1338.1 2485.4 1335.9 2485.4 1333.6 2485.4 1332.1 2486.9 1332.1 2489.2L1332.1 2534.9 1313.3 2523.7 1313.4 2500.4C1313.4 2498.9 1311.1 2496.7 1308.9 2496.7 1306.6 2496.6 1305.1 2498.9 1305.1 2500.4L1305.1 2519.1 1283.4 2506.4C1282.6 2506.4 1282.6 2506.4 1281.9 2506.4 1280.4 2506.4 1278.9 2507.1 1278.1 2507.9 1277.3 2510.1 1278.1 2512.4 1279.6 2513.1ZM1395.1 2534.2L1399.6 2532 1403.3 2534.2 1435.6 2553 1439.3 2555.3 1439.3 2559.8 1439.3 2596.5 1439.3 2601 1435.5 2603.3 1403.3 2622 1399.5 2624.2 1395 2622 1363.5 2603.2 1359 2600.9 1359 2596.4 1359.1 2559.7 1359.1 2555.2 1363.6 2552.9 1395.1 2534.2Z" fill="rgba(255, 255, 255, 0.04)"></path><path d="M1156.1 1383.3L1195.2 1447 1179.3 1511.6 1131.2 1465.5 1130.1 1390.9C1130.1 1390.9 1129.9 1390 1129.9 1390 1129.4 1388.3 1127.2 1387 1125.2 1386.7 1122.3 1386.6 1120.3 1389.1 1121 1391.7L1122.2 1456.9 1098.8 1434.6 1097.9 1405.8C1097.9 1405.8 1097.7 1405 1097.7 1405 1097.2 1403.3 1095 1402 1093 1401.7 1090.1 1401.6 1088.1 1404 1088.8 1406.6L1088.9 1426.3 1071.9 1409.7C1070.5 1408.2 1066.8 1408.3 1065.3 1409.7 1063 1411.3 1064 1414.8 1065.4 1416.3L1082.4 1432.9 1062.7 1433C1059.9 1432.8 1057.8 1435.3 1058.5 1437.9 1058.4 1440.8 1060.9 1442.9 1063.5 1442.1L1092.3 1441.2 1114.8 1463.8 1049.5 1464.9C1046.7 1464.8 1044.6 1467.3 1045.3 1469.9 1045.2 1472.7 1047.7 1474.8 1050.3 1474.1L1125 1473 1173 1519 1108.2 1537.8 1042.4 1501.7C1040.1 1500.4 1037.5 1501.2 1036.3 1503.4 1035.1 1505.6 1035.8 1508.2 1038.1 1509.5L1096.1 1541.3 1065 1550.4 1040.4 1536.9C1038.2 1535.7 1035.6 1536.4 1034.4 1538.7 1033.2 1540.9 1033.9 1543.5 1036.1 1544.7L1052.9 1553.9 1028.7 1560.9C1025.8 1560.8 1024.8 1563.9 1025.6 1566.5 1026.4 1569.1 1028.6 1570.3 1031.2 1569.6L1053.6 1563 1044.5 1579.8C1043.2 1582 1044 1584.6 1046.2 1585.8S1051 1586.3 1052.3 1584.1L1065.7 1559.5 1096.9 1550.5 1065 1608.5C1063.8 1610.7 1064.5 1613.3 1066.7 1614.5 1069 1615.8 1071.6 1615 1072.8 1612.8L1109 1547 1172.9 1528.4 1157 1593 1094.9 1630.7C1092.5 1632.4 1092.4 1635.2 1093.2 1637.8 1094.8 1640.1 1097.6 1640.2 1100.2 1639.5L1156 1605.5 1148.2 1636.8 1123.4 1651.5C1121.1 1653.1 1120.9 1656 1121.7 1658.6 1123.3 1660.9 1126.2 1661 1127.9 1660.5L1144.5 1650 1139.1 1673.2C1138.7 1675.2 1139.7 1678.6 1142.6 1678.7 1145.4 1678.8 1148 1678.1 1148.1 1675.3L1153.6 1652.1 1164 1668.8C1165.6 1671.1 1168.5 1671.2 1170.2 1670.7 1171.7 1669.3 1172.9 1667.1 1172.4 1665.4 1172.4 1665.4 1172.2 1664.5 1172.2 1664.5L1157.5 1639.7 1165.2 1608.4 1199.2 1664.1C1200.9 1666.5 1203.7 1666.6 1205.4 1666.1 1206.9 1664.7 1208.1 1662.5 1207.6 1660.8 1207.6 1660.8 1207.4 1659.9 1207.4 1659.9L1168.3 1596.3 1184.2 1531.7 1232.2 1577.7 1233.3 1652.4C1233.2 1655.2 1235.7 1657.3 1238.3 1656.6 1241.1 1656.7 1243.2 1654.2 1242.4 1651.6L1241.3 1586.3 1264.6 1608.6 1265.5 1637.4C1265.4 1640.2 1267.9 1642.3 1270.5 1641.6 1273.3 1641.7 1275.4 1639.2 1274.6 1636.6L1274.6 1617 1291.6 1633.6C1292.9 1635 1296.6 1634.9 1298.1 1633.5 1299.6 1632.2 1300 1630.2 1299.5 1628.5 1299.2 1627.6 1299 1626.7 1297.8 1626.1L1280.8 1609.5 1300.5 1609.4C1303.3 1609.5 1305.4 1607.1 1304.7 1604.5 1304.7 1604.5 1304.4 1603.6 1304.4 1603.6 1303.9 1601.9 1301.7 1600.6 1299.7 1600.3L1270.9 1601.1 1247.6 1578.9 1312.8 1577.7C1315.7 1577.8 1317.8 1575.4 1317 1572.8 1317 1572.8 1316.8 1571.9 1316.8 1571.9 1316.3 1570.2 1314 1568.9 1312.1 1568.6L1237.4 1569.6 1189.3 1523.6 1253.3 1505 1319.1 1541.2C1321.3 1542.4 1323.9 1541.7 1325.1 1539.5 1326.4 1537.2 1325.6 1534.6 1323.4 1533.4L1266.3 1501.3 1297.4 1492.2 1321.9 1505.7C1324.1 1507 1326.7 1506.2 1328 1504S1328.4 1499.1 1326.2 1497.9L1309.5 1488.7 1331.9 1482.2C1334.5 1481.4 1335.8 1479.2 1335 1476.6 1334.3 1474 1332 1472.8 1329.4 1473.6L1307 1480.1 1316.2 1463.4C1316.8 1462.2 1317.4 1461.1 1316.9 1459.4S1315.3 1457.1 1314.1 1456.4C1311.9 1455.2 1309.3 1456 1308.1 1458.2L1294.6 1482.7 1263.5 1491.8 1295.4 1433.8C1296 1432.7 1296.6 1431.5 1296.1 1429.8 1295.9 1429 1294.5 1427.5 1293.4 1426.9 1291.1 1425.6 1288.5 1426.4 1287.3 1428.6L1251.1 1494.4 1187.2 1513 1203.1 1448.4 1266.7 1409.3C1268.2 1407.9 1269.4 1405.7 1268.9 1404 1268.9 1404 1268.7 1403.1 1268.7 1403.1 1267 1400.8 1264.2 1400.7 1262.5 1401.2L1206.7 1435.2 1214.5 1403.8 1239.3 1389.1C1240.8 1387.8 1242 1385.6 1241.5 1383.8 1241.5 1383.8 1241.3 1383 1241.3 1383 1239.6 1380.6 1236.8 1380.5 1235.1 1381L1218.4 1391.5 1223.9 1368.3C1223.6 1367.5 1224.2 1366.3 1224 1365.5 1223.5 1363.8 1222.1 1362.3 1220.1 1361.9 1217.3 1361.8 1214.7 1362.6 1214.6 1365.4L1209.1 1388.5 1198.7 1371.9C1197.1 1369.6 1194.2 1369.4 1192.5 1369.9 1190.1 1371.6 1190 1374.4 1190.5 1376.1L1205.2 1400.9 1197.5 1432.2 1163.5 1376.5C1161.8 1374.2 1159 1374.1 1157.3 1374.6 1155.4 1377.9 1154.5 1381 1156.1 1383.3Z" fill="rgba(255, 255, 255, 0.04)"></path><path d="M349.3 1573.9L356.7 1596.2 341.1 1593.6C339.5 1593.2 337.5 1594.4 336.6 1596.6 336.7 1598.7 337.9 1600.7 339.5 1601.1L360 1605 366.8 1625.8 325.3 1617.6C322.6 1617.2 320.6 1618.4 320.7 1620.5 319.8 1622.7 321 1624.8 323.7 1625.1L369.5 1634.1 376.1 1652.8 346.1 1687.3 328.9 1684.3 313.4 1637C312.8 1636.5 312.2 1636 311.7 1635.5 311.1 1635 309.5 1634.6 308.4 1634.7 305.8 1635.4 304.9 1637.6 306.1 1639.6L320.3 1682.8 299.3 1678.4 291.3 1656.6C291.8 1656.1 291.3 1655.6 290.7 1655.1 289.6 1654.1 287.9 1653.7 286.4 1654.3 284.8 1655 283.9 1657.2 284.1 1659.3L290.6 1676.9 264.2 1671.8C262.6 1671.4 260.6 1672.6 259.7 1674.8 259.8 1676.9 261 1679 262.6 1679.4L287.4 1684 277.1 1695.9C275.6 1697.6 276.3 1700.2 277.5 1701.2 279.2 1702.7 281.8 1703 283.3 1701.3L296.6 1686 317.6 1690.4 290.1 1722.1C288.6 1723.8 288.8 1725.9 290.5 1727.4 292.2 1728.9 294.3 1728.7 295.8 1727L326.3 1691.9 344.5 1694.9 359.3 1738.5 348 1751.5 301.1 1742.6C298.9 1741.7 296.4 1743.5 296.5 1745.6 295.6 1747.8 297.3 1749.3 299.5 1750.2L342.1 1758.3 327.8 1774.8 306.8 1770.4C305.2 1770 302.6 1771.7 302.2 1773.4S303.6 1777.5 305.8 1778.4L321.9 1781.5 304.7 1801.4C303.2 1803.1 303.9 1805.7 305.6 1807.1 306.8 1808.1 309.5 1808.5 310.9 1806.8L328.1 1787 334.1 1803C334.7 1804.6 336.4 1806 339 1805.3 340.6 1804.7 342 1801.9 341.3 1800.4L334.1 1780.2 348.3 1763.7 362.4 1804.8C363.6 1806.8 365.3 1808.3 367.9 1807.6 369.4 1806.9 370.8 1804.2 370.2 1802.6L354.2 1757 365.5 1743.9 410.8 1752.4 416.3 1770.1 385.8 1805.2C384.3 1806.9 384.5 1809.1 386.2 1810.5 387.9 1812 390.5 1812.3 392 1810.6L419.6 1778.9 426.8 1799.2 413.5 1814.5C412.1 1816.1 412.2 1818.3 413.9 1819.7 415.6 1821.2 417.7 1821.1 419.2 1819.4L429.5 1807.5 437.6 1831.4C438.2 1832.9 441 1834.3 442.5 1833.7 444.6 1832.5 446.1 1830.8 444.9 1828.7L436.7 1803.8 454.5 1807.3C456.6 1807.2 458.7 1806 459.1 1804.3 459.5 1802.7 458.9 1801.2 457.7 1800.2 457.7 1800.2 457.2 1799.7 456.1 1799.8L433.4 1795 426.2 1774.8 470.9 1782.8C473.1 1783.7 475.1 1782.5 475.4 1779.8 475.4 1778.7 475.3 1777.7 474.2 1776.7 473.6 1776.2 473 1775.7 472.5 1775.2L423.5 1766.4 418 1749.8 448 1715.3 467.5 1719.2 482.8 1763.3C483.5 1765.9 485.7 1766.8 487.7 1765.6 489.9 1765.5 490.8 1763.3 490 1760.7L476.1 1720.7 497.6 1724.5 504.3 1744.3C505 1745.8 507.1 1746.7 509.3 1746.6 511.3 1745.4 512.8 1743.7 511.6 1741.6L506.8 1726.6 529.9 1730.8C532.1 1731.7 533.6 1730 534.5 1727.8 534.4 1726.7 533.8 1725.2 532.7 1724.2 532.7 1724.2 532.1 1723.7 531.5 1723.2L506.8 1718.6 519.1 1704.4C520 1703.3 520.4 1700.6 518.7 1699.1 517 1697.7 514.4 1698.4 513.4 1699.5L498.1 1717.1 476.6 1713.3 506.6 1678.7C508.1 1677 507.4 1674.4 505.7 1672.9S501.9 1671.6 500.4 1673.3L467.4 1711.2 449.6 1707.7 434.9 1664.1 447.7 1649.4 495.1 1658.8C497.2 1658.6 499.3 1657.4 500.2 1655.3 500.1 1654.2 499.5 1652.6 498.3 1651.7 497.8 1651.2 497.2 1650.7 496.1 1650.7L453.6 1642.6 467.8 1626.2 489.4 1630C491 1630.4 493 1629.2 493.9 1627 493.8 1624.9 492.6 1622.8 491 1622.4L473.7 1619.4 489.5 1601.2C490.5 1600.1 490.2 1596.9 489.1 1596 487.4 1594.5 484.2 1594.7 483.2 1595.8L467.5 1614 462.7 1597.8C462.1 1597.3 461.5 1596.8 461 1596.3 459.8 1595.4 458.2 1594.9 457.1 1595 455.1 1596.2 454.2 1598.4 454.3 1600.5L461.6 1620.7 447.3 1637.2 433.3 1596.2C432.6 1593.5 430.4 1592.6 428.8 1593.3 426.2 1594 425.3 1596.2 425.5 1598.3L441.4 1644 428.7 1658.7 383.4 1650.2 377.4 1633 410.4 1595.1C411.8 1593.4 411.7 1591.3 410 1589.8 408.3 1588.3 406.2 1588.5 404.7 1590.2L374.7 1624.7 367.9 1603.9 383.2 1586.4C384.1 1585.3 383.9 1582.1 382.2 1580.6 380.5 1579.1 377.9 1579.8 376.9 1581L364.6 1595.1 356.6 1571.2C356 1570.8 356 1570.8 355.5 1570.3 354.3 1569.3 352.7 1568.9 351.6 1568.9 349.6 1570.1 348.7 1572.3 349.3 1573.9ZM422.7 1665.5L427.6 1666.7 429 1670.9 441 1706.2 442.4 1710.3 439.4 1713.7 415.3 1741.5 412.4 1744.9 408.1 1744.1 371.4 1737.1 367.1 1736.4 365.2 1731.7 353.7 1696.9 351.8 1692.3 354.7 1688.9 378.8 1661.1 381.8 1657.7 386.7 1659 422.7 1665.5Z" fill="rgba(255, 255, 255, 0.04)"></path><path d="M411.7 2626.8L351.4 2611.5 323.3 2563.7 378.7 2563.3 422.8 2607.2C422.8 2607.2 423.5 2607.5 423.5 2607.5 424.8 2608.3 426.8 2607.7 428.2 2606.8 430 2605.2 429.8 2602.5 427.8 2601.4L389.2 2563.1 416.1 2562.8 433.3 2579.5C433.3 2579.5 434 2579.9 434 2579.9 435.3 2580.6 437.3 2580 438.7 2579.1 440.5 2577.5 440.3 2574.8 438.3 2573.7L426.8 2562 446.7 2562.1C448.3 2562.1 450.5 2559.9 450.5 2558.2 451 2555.9 448.4 2554.4 446.7 2554.3L426.9 2554.3 438.6 2542.8C440.3 2541.2 440.1 2538.5 438.2 2537.4 436.6 2535.7 433.9 2535.9 432.8 2537.8L416.1 2555.1 389.6 2554.7 427.9 2516.1C429.6 2514.5 429.4 2511.8 427.5 2510.7 425.9 2508.9 423.2 2509.1 422.1 2511.1L378.2 2555.2 322.7 2555.7 350.4 2506.7 410.7 2490C412.8 2489.4 413.9 2487.5 413.3 2485.4 412.8 2483.4 410.8 2482.3 408.8 2482.9L355.6 2497.6 368.9 2474.1 391.4 2467.8C393.4 2467.3 394.6 2465.3 394 2463.3 393.4 2461.2 391.5 2460.1 389.4 2460.7L374.1 2464.9 384.4 2446.7C386.2 2445.1 385 2442.7 383 2441.6 381.1 2440.4 379 2441 377.9 2443L368.3 2459.9 364 2444.6C363.5 2442.6 361.5 2441.5 359.5 2442S356.3 2444.5 356.9 2446.6L363.1 2469.1 349.8 2492.6 335.1 2439.4C334.5 2437.4 332.6 2436.3 330.5 2436.8 328.5 2437.4 327.4 2439.4 327.9 2441.4L344.6 2501.7 317.3 2550 289.2 2502.2 304.3 2443.5C304.8 2441.2 303.2 2439.4 301.2 2438.3 298.9 2437.9 297.1 2439.5 296 2441.4L282.6 2494.1 269 2470.9 275.2 2447.7C275.7 2445.4 274.1 2443.7 272.1 2442.5 269.8 2442.1 268 2443.7 267.3 2445L263.5 2460.9 253.3 2443.9C252.3 2442.5 249.7 2441.1 247.9 2442.6 246.2 2444.2 245.1 2446.2 246.7 2448L256.9 2464.9 240.9 2461.1C238.6 2460.6 236.9 2462.2 236.1 2463.5 236 2465.2 236.6 2467.2 237.9 2468 237.9 2468 238.6 2468.4 238.6 2468.4L261.7 2474.6 275.3 2497.8 222.6 2484.3C220.3 2483.9 218.5 2485.5 217.8 2486.8 217.7 2488.4 218.3 2490.5 219.6 2491.2 219.6 2491.2 220.2 2491.6 220.2 2491.6L280.6 2506.8 308.7 2554.6 253.2 2555.1 209.1 2511.2C207.6 2509.4 204.9 2509.6 203.7 2511.6 202 2513.2 202.2 2515.8 204.1 2517L242.8 2555.2 215.9 2555.5 198.6 2538.8C197.1 2537.1 194.4 2537.3 193.3 2539.2 191.5 2540.8 191.7 2543.5 193.6 2544.6L205.1 2556.3 185.3 2556.3C183.6 2556.2 181.5 2558.4 181.4 2560.1 181.3 2561.8 182.3 2563.2 183.6 2563.9 184.2 2564.3 184.9 2564.7 185.9 2564.4L205.7 2564.4 194 2575.9C192.3 2577.5 192.5 2580.2 194.4 2581.3 194.4 2581.3 195.1 2581.6 195.1 2581.6 196.4 2582.4 198.4 2581.8 199.8 2580.9L216.5 2563.6 243.4 2563.3 205.1 2602C203.4 2603.6 203.6 2606.3 205.5 2607.4 205.5 2607.4 206.2 2607.7 206.2 2607.7 207.5 2608.5 209.5 2607.9 210.9 2607L254.8 2562.9 310.3 2562.4 282.9 2610.7 222.6 2627.4C220.6 2628 219.5 2629.9 220 2632 220.6 2634 222.6 2635.1 224.6 2634.6L277.4 2620.5 264.1 2644 241.6 2650.2C239.6 2650.8 238.4 2652.7 239 2654.8S241.5 2657.9 243.6 2657.4L258.9 2653.1 249.3 2670.1C248.2 2672 248.8 2674.1 250.7 2675.2 252.7 2676.3 254.7 2675.7 255.8 2673.8L265.4 2656.8 269.7 2672.1C270 2673.2 270.2 2674.2 271.6 2674.9S273.9 2675.4 274.9 2675.1C276.9 2674.5 278.1 2672.6 277.5 2670.5L271.3 2648 284.6 2624.6 299.3 2677.7C299.6 2678.7 299.9 2679.8 301.2 2680.5 301.8 2680.9 303.5 2680.9 304.5 2680.7 306.6 2680.1 307.7 2678.1 307.1 2676.1L290.4 2615.8 317.7 2567.5 345.8 2615.3 330.6 2675.6C330.5 2677.3 331.1 2679.3 332.4 2680.1 332.4 2680.1 333.1 2680.5 333.1 2680.5 335.4 2680.9 337.2 2679.3 337.9 2678L351.4 2625.3 364.9 2648.5 358.7 2671.7C358.6 2673.4 359.2 2675.4 360.5 2676.2 360.5 2676.2 361.1 2676.5 361.1 2676.5 363.5 2677 365.2 2675.4 366 2674.1L369.8 2658.2 380 2675.2C380.7 2675.5 381 2676.5 381.6 2676.9 382.9 2677.7 384.6 2677.7 386 2676.8 387.7 2675.2 388.9 2673.3 387.3 2671.5L377.1 2654.5 393 2658.4C395.3 2658.8 397.1 2657.2 397.8 2655.9 398.3 2653.6 396.7 2651.8 395.4 2651.1L372.2 2644.9 358.6 2621.7 411.3 2635.1C413.6 2635.6 415.4 2634 416.1 2632.7 415.3 2629.6 414.1 2627.2 411.7 2626.8Z" fill="rgba(255, 255, 255, 0.04)"></path></g><defs><mask id="SvgjsMask1036"><rect width="1440" height="2700" fill="#ffffff"></rect></mask><filter id="SvgjsFilter1037"><feGaussianBlur stdDeviation="1"></feGaussianBlur></filter></defs></svg>